<?xml version="1.0" encoding="UTF-8" standalone="no"?>
<!-- Created with Inkscape (http://www.inkscape.org/) -->

<svg
   width="18.909496mm"
   height="18.909529mm"
   viewBox="0 0 18.909496 18.909529"
   version="1.1"
   id="svg1"
   inkscape:version="1.3.2 (091e20e, 2023-11-25, custom)"
   sodipodi:docname="d100.svg"
   xmlns:inkscape="http://www.inkscape.org/namespaces/inkscape"
   xmlns:sodipodi="http://sodipodi.sourceforge.net/DTD/sodipodi-0.dtd"
   xmlns="http://www.w3.org/2000/svg"
   xmlns:svg="http://www.w3.org/2000/svg">
  <sodipodi:namedview
     id="namedview1"
     pagecolor="#000000"
     bordercolor="#000000"
     borderopacity="0.25"
     inkscape:showpageshadow="2"
     inkscape:pageopacity="0.0"
     inkscape:pagecheckerboard="0"
     inkscape:deskcolor="#d1d1d1"
     inkscape:document-units="mm"
     inkscape:zoom="5.8511223"
     inkscape:cx="46.828623"
     inkscape:cy="40.419596"
     inkscape:window-width="1920"
     inkscape:window-height="1017"
     inkscape:window-x="1912"
     inkscape:window-y="-8"
     inkscape:window-maximized="1"
     inkscape:current-layer="layer1" />
  <defs
     id="defs1" />
  <g
     inkscape:label="Layer 1"
     inkscape:groupmode="layer"
     id="layer1"
     transform="translate(-29.897917,-25.929166)">
    <g
       id="g51"
       transform="translate(-27.388481,-23.915814)"
       style="stroke:#ffffff;stroke-opacity:1;stroke-width:1;stroke-dasharray:none">
      <path
         d="m 66.425371,50.243918 -1.341003,0.196887 -1.320333,0.306441 -1.223698,0.583427 -1.170988,0.682129 -0.996838,0.91829 -0.91829,0.996839 -0.682129,1.170987 -0.583427,1.223698 -0.306441,1.320333 -0.196888,1.341004 0.09612,1.351855 0.207222,1.339453 0.489893,1.263489 0.593245,1.21853 0.840776,1.062985 0.925524,0.99012 1.116728,0.767912 1.176673,0.672827 1.293461,0.404626 1.3224,0.296623 1.355472,0.0052 1.351339,-0.106454 1.296562,-0.394291 1.259871,-0.500228 1.122412,-0.759127 1.056267,-0.84956 0.84956,-1.056266 0.759127,-1.122412 0.500228,-1.259872 0.394291,-1.296562 0.106453,-1.351338 -0.0052,-1.355473 -0.296623,-1.3224 -0.404594,-1.293493 -0.672828,-1.176672 -0.767911,-1.116728 -0.990121,-0.925525 -1.062984,-0.840776 -1.21853,-0.593245 -1.263489,-0.489893 -1.339453,-0.207222 z"
         style="fill:none;stroke:#ffffff;stroke-width:1;stroke-opacity:1;stroke-dasharray:none"
         id="path33-8-6" />
      <path
         style="fill:none;fill-opacity:0.139881;stroke:#ffffff;stroke-width:1;stroke-dasharray:none;stroke-opacity:1"
         d="m 63.539989,52.688845 0.514495,-0.654809 2.970031,-0.491109 0.826932,0.150259 2.680981,0.551325 1.075759,1.169304 1.590254,0.88867 0.818513,2.361994 0.537879,0.584654 0.210475,3.344209 -0.491108,0.724969 -0.46772,2.432153 -1.637027,1.075759 -0.771741,1.333006 -2.736171,0.912058 -0.748355,0.187089 -2.946646,-0.09355 -0.795127,-0.631423 -2.385382,-0.818512 -0.935442,-1.870887 -0.982216,-0.701583 -0.654811,-3.34421 0.233862,-3.157121 0.982215,-0.888671 0.888672,-2.104748 z"
         id="path1"
         sodipodi:nodetypes="cccccccccccccccccccccccccc" />
      <path
         style="fill:none;fill-opacity:0.139881;stroke:#ffffff;stroke-width:1;stroke-dasharray:none;stroke-opacity:1"
         d="M 59.447424,56.641089 58.188663,56.322615"
         id="path2" />
      <path
         style="fill:none;fill-opacity:0.139881;stroke:#ffffff;stroke-width:1;stroke-dasharray:none;stroke-opacity:1"
         d="M 61.318311,53.64767 60.37251,52.931091"
         id="path3" />
      <path
         style="fill:none;fill-opacity:0.139881;stroke:#ffffff;stroke-width:1;stroke-dasharray:none;stroke-opacity:1"
         d="M 64.054484,52.034035 63.764035,50.747244"
         id="path4" />
      <path
         style="fill:none;fill-opacity:0.139881;stroke:#ffffff;stroke-width:1;stroke-dasharray:none;stroke-opacity:1"
         d="m 67.024514,51.542926 0.07678,-1.25095"
         id="path5" />
      <path
         style="fill:none;fill-opacity:0.139881;stroke:#ffffff;stroke-width:1;stroke-dasharray:none;stroke-opacity:1"
         d="m 70.532428,52.244511 0.457005,-0.910739"
         id="path7" />
      <path
         style="fill:none;fill-opacity:0.139881;stroke:#ffffff;stroke-width:1;stroke-dasharray:none;stroke-opacity:1"
         d="m 73.198441,54.302485 0.453361,-0.905788"
         id="path8" />
      <path
         style="fill:none;fill-opacity:0.139881;stroke:#ffffff;stroke-width:1;stroke-dasharray:none;stroke-opacity:1"
         d="M 74.554833,57.249133 75.497136,56.98359"
         id="path9" />
      <path
         style="fill:none;fill-opacity:0.139881;stroke:#ffffff;stroke-width:1;stroke-dasharray:none;stroke-opacity:1"
         d="m 74.765307,60.593342 0.9272,0.419457"
         id="path10" />
      <path
         style="fill:none;fill-opacity:0.139881;stroke:#ffffff;stroke-width:1;stroke-dasharray:none;stroke-opacity:1"
         d="m 73.80648,63.750464 0.611945,0.379976"
         id="path16" />
      <path
         style="fill:none;fill-opacity:0.139881;stroke:#ffffff;stroke-width:1;stroke-dasharray:none;stroke-opacity:1"
         d="m 71.397711,66.159228 0.174117,0.817809"
         id="path17" />
      <path
         style="fill:none;fill-opacity:0.139881;stroke:#ffffff;stroke-width:1;stroke-dasharray:none;stroke-opacity:1"
         d="m 68.287362,67.16483 0.166825,1.086289"
         id="path21" />
      <path
         style="fill:none;fill-opacity:0.139881;stroke:#ffffff;stroke-width:1;stroke-dasharray:none;stroke-opacity:1"
         d="m 64.96654,67.164825 -0.541563,0.890923"
         id="path29" />
      <path
         style="fill:none;fill-opacity:0.139881;stroke:#ffffff;stroke-width:1;stroke-dasharray:none;stroke-opacity:1"
         d="M 61.786031,65.71489 61.39648,66.594341"
         id="path30" />
      <path
         style="fill:none;fill-opacity:0.139881;stroke:#ffffff;stroke-width:1;stroke-dasharray:none;stroke-opacity:1"
         d="m 59.868373,63.14242 -1.093181,0.405593"
         id="path32" />
      <path
         style="fill:none;fill-opacity:0.139881;stroke:#ffffff;stroke-width:1;stroke-dasharray:none;stroke-opacity:1"
         d="M 59.213561,59.798211 57.733395,59.659879"
         id="path33" />
      <path
         style="fill:none;fill-opacity:0.139881;stroke:#ffffff;stroke-width:1;stroke-dasharray:none;stroke-opacity:1"
         d="m 60.429639,55.752417 2.128134,1.103641 1.753981,-2.49427 -0.771766,-1.672944"
         id="path34" />
      <path
         style="fill:none;fill-opacity:0.139881;stroke:#ffffff;stroke-width:1;stroke-dasharray:none;stroke-opacity:1"
         d="m 64.311754,54.361788 2.7347,1e-6 0.445782,-0.316551 -0.05426,-2.427181"
         id="path35"
         sodipodi:nodetypes="cccc" />
      <path
         style="fill:none;fill-opacity:0.139881;stroke:#ffffff;stroke-width:1;stroke-dasharray:none;stroke-opacity:1"
         d="m 67.492236,54.045238 2.921765,0.958829 1.194186,-1.590252"
         id="path36" />
      <path
         style="fill:none;fill-opacity:0.139881;stroke:#ffffff;stroke-width:1;stroke-dasharray:none;stroke-opacity:1"
         d="m 70.414001,55.004067 0.469217,1.765472 1.122532,0.607126 2.011204,-0.712187"
         id="path37" />
      <path
         style="fill:none;fill-opacity:0.139881;stroke:#ffffff;stroke-width:1;stroke-dasharray:none;stroke-opacity:1"
         d="m 72.00575,57.376665 0.167815,3.240064 2.100635,0.701582"
         id="path38" />
      <path
         style="fill:none;fill-opacity:0.139881;stroke:#ffffff;stroke-width:1;stroke-dasharray:none;stroke-opacity:1"
         d="m 72.173565,60.616729 -1.065708,0.827257 -0.346927,1.901229 1.408523,1.481008"
         id="path39" />
      <path
         style="fill:none;fill-opacity:0.139881;stroke:#ffffff;stroke-width:1;stroke-dasharray:none;stroke-opacity:1"
         d="m 70.76093,63.345215 -2.754198,1.223762 0.28063,2.595853"
         id="path40" />
      <path
         style="fill:none;fill-opacity:0.139881;stroke:#ffffff;stroke-width:1;stroke-dasharray:none;stroke-opacity:1"
         d="m 68.006732,64.568977 -0.773189,-0.444336 -2.383933,0.397564 -0.678197,2.011198"
         id="path41" />
      <path
         style="fill:none;fill-opacity:0.139881;stroke:#ffffff;stroke-width:1;stroke-dasharray:none;stroke-opacity:1"
         d="M 64.84961,64.522204 62.815019,62.3473 60.850589,63.844003"
         id="path42" />
      <path
         style="fill:none;fill-opacity:0.139881;stroke:#ffffff;stroke-width:1;stroke-dasharray:none;stroke-opacity:1"
         d="m 62.815019,62.3473 -1.416693,-2.618256 -2.184765,0.06917"
         id="path43" />
      <path
         style="fill:none;fill-opacity:0.139881;stroke:#ffffff;stroke-width:1;stroke-dasharray:none;stroke-opacity:1"
         d="m 61.398326,59.729044 1.159447,-2.872986"
         id="path44"
         sodipodi:nodetypes="cc" />
      <path
         sodipodi:type="star"
         style="fill:none;fill-opacity:0.139881;stroke:#ffffff;stroke-width:0.74029904;stroke-dasharray:none;stroke-opacity:1"
         id="path45"
         inkscape:flatsided="false"
         sodipodi:sides="6"
         sodipodi:cx="50.163151"
         sodipodi:cy="57.369808"
         sodipodi:r1="1.5851415"
         sodipodi:r2="1.3790731"
         sodipodi:arg1="0.78539816"
         sodipodi:arg2="1.3089969"
         inkscape:rounded="0"
         inkscape:randomized="0"
         d="m 51.284015,58.490673 -0.763934,0.211218 -0.767195,0.199046 -0.564887,-0.555977 -0.555977,-0.564887 0.199046,-0.767195 0.211218,-0.763934 0.763934,-0.211218 0.767196,-0.199047 0.564887,0.555977 0.555977,0.564887 -0.199047,0.767196 z"
         inkscape:transform-center-x="0.12677471"
         inkscape:transform-center-y="-0.073194733"
         transform="matrix(1.3047779,-0.3496142,0.3496142,1.3047779,-18.462615,1.8858993)" />
      <path
         style="fill:none;fill-opacity:0.139881;stroke:#ffffff;stroke-width:1;stroke-dasharray:none;stroke-opacity:1"
         d="m 62.557773,56.856058 2.634332,1.276339"
         id="path46" />
      <path
         style="fill:none;fill-opacity:0.139881;stroke:#ffffff;stroke-width:1;stroke-dasharray:none;stroke-opacity:1"
         d="m 67.046453,57.06179 10e-7,-2.700001"
         id="path47"
         sodipodi:nodetypes="cc" />
      <path
         style="fill:none;fill-opacity:0.139881;stroke:#ffffff;stroke-width:1;stroke-dasharray:none;stroke-opacity:1"
         d="m 68.900804,58.132397 1.982414,-1.362858"
         id="path48" />
      <path
         style="fill:none;fill-opacity:0.139881;stroke:#ffffff;stroke-width:1;stroke-dasharray:none;stroke-opacity:1"
         d="m 68.900804,60.273615 2.207053,1.170371"
         id="path49" />
      <path
         style="fill:none;fill-opacity:0.139881;stroke:#ffffff;stroke-width:1;stroke-dasharray:none;stroke-opacity:1"
         d="m 67.046456,61.344224 0.187087,2.780417"
         id="path50" />
      <path
         style="fill:none;fill-opacity:0.139881;stroke:#ffffff;stroke-width:1;stroke-dasharray:none;stroke-opacity:1"
         d="M 65.192105,60.273615 62.815019,62.3473"
         id="path51" />
    </g>
  </g>
</svg>
