<?xml version="1.0" encoding="UTF-8" standalone="no"?>
<!-- Created with Inkscape (http://www.inkscape.org/) -->

<svg
   width="18.70817mm"
   height="19.623438mm"
   viewBox="0 0 18.70817 19.623438"
   version="1.1"
   id="svg1"
   inkscape:version="1.3.2 (091e20e, 2023-11-25, custom)"
   sodipodi:docname="d12.svg"
   xmlns:inkscape="http://www.inkscape.org/namespaces/inkscape"
   xmlns:sodipodi="http://sodipodi.sourceforge.net/DTD/sodipodi-0.dtd"
   xmlns="http://www.w3.org/2000/svg"
   xmlns:svg="http://www.w3.org/2000/svg">
  <sodipodi:namedview
     id="namedview1"
     pagecolor="#000000"
     bordercolor="#000000"
     borderopacity="0.25"
     inkscape:showpageshadow="2"
     inkscape:pageopacity="0.0"
     inkscape:pagecheckerboard="0"
     inkscape:deskcolor="#d1d1d1"
     inkscape:document-units="mm"
     inkscape:zoom="5.8511223"
     inkscape:cx="57.937603"
     inkscape:cy="59.390315"
     inkscape:window-width="1920"
     inkscape:window-height="1017"
     inkscape:window-x="1912"
     inkscape:window-y="-8"
     inkscape:window-maximized="1"
     inkscape:current-layer="layer1" />
  <defs
     id="defs1" />
  <g
     inkscape:label="Layer 1"
     inkscape:groupmode="layer"
     id="layer1"
     transform="translate(-125.10836,-97.312239)">
    <g
       id="g15"
       transform="matrix(0.93701714,0,0,0.93701714,11.375016,91.555222)"
       style="stroke-width:1.4941;stroke-dasharray:none"
       inkscape:label="d12">
      <g
         id="g29"
         transform="matrix(1.0672163,0,0,1.0672163,-8.183997,-3.7155292)"
         style="stroke-width:1.4;stroke-dasharray:none">
        <path
           sodipodi:type="star"
           style="fill:none;stroke:#fefefe;stroke-width:8.59411;stroke-dasharray:none;stroke-opacity:1"
           id="path6-3"
           inkscape:flatsided="false"
           sodipodi:sides="10"
           sodipodi:cx="64.392204"
           sodipodi:cy="98.758827"
           sodipodi:r1="55.720676"
           sodipodi:r2="52.934643"
           sodipodi:arg1="0.69806328"
           sodipodi:arg2="1.0122225"
           inkscape:rounded="0"
           inkscape:randomized="0"
           d="m 107.07917,134.57247 -14.632805,9.07556 -14.57041,9.17541 -17.172669,-1.25866 -17.18088,-1.14121 L 30.369248,139.31145 17.140411,128.28952 13.030824,111.56839 8.8069948,94.875752 15.310701,78.932521 l 6.394538,-15.987334 14.632805,-9.075562 14.570409,-9.17541 17.17267,1.258663 17.180879,1.14121 13.153158,11.112121 13.22884,11.021925 4.10959,16.721128 4.22382,16.692638 -6.5037,15.94323 z"
           inkscape:transform-center-x="0.5001614"
           inkscape:transform-center-y="0.3504543"
           transform="matrix(0.15145097,-0.06014608,0.06008822,0.15135657,115.06948,7.9753916)" />
        <path
           sodipodi:type="star"
           style="fill:none;stroke:#fefefe;stroke-width:15.6449;stroke-dasharray:none;stroke-opacity:1"
           id="path6-3-2"
           inkscape:flatsided="false"
           sodipodi:sides="5"
           sodipodi:cx="64.392204"
           sodipodi:cy="98.758827"
           sodipodi:r1="55.720676"
           sodipodi:r2="45.690952"
           sodipodi:arg1="0.69806328"
           sodipodi:arg2="1.3263818"
           inkscape:rounded="0"
           inkscape:randomized="0"
           d="M 107.07917,134.57247 75.44888,143.09181 43.522406,150.42357 25.645736,122.97399 8.8069948,94.875752 29.388894,69.391644 50.908453,44.694215 81.505437,56.393743 111.644,69.228134 109.97207,101.94295 Z"
           inkscape:transform-center-x="0.2748908"
           inkscape:transform-center-y="-0.19250827"
           transform="matrix(0.08319533,0.03303957,0.03300779,-0.08314352,122.14947,25.127552)" />
        <path
           style="fill:none;stroke:#fefefe;stroke-width:1.4941;stroke-dasharray:none;stroke-opacity:1"
           d="m 131.33904,11.288218 0.082,-4.3580345"
           id="path11"
           transform="matrix(0.93701717,0,0,0.93701717,7.6685457,3.4815147)" />
        <path
           style="fill:none;stroke:#fefefe;stroke-width:1.4941;stroke-dasharray:none;stroke-opacity:1"
           d="m 136.4237,14.935755 4.17052,-1.261265"
           id="path12"
           transform="matrix(0.93701717,0,0,0.93701717,7.6685457,3.4815147)" />
        <path
           style="fill:none;stroke:#fefefe;stroke-width:1.4941;stroke-dasharray:none;stroke-opacity:1"
           d="m 134.52715,20.894853 2.48017,3.587916"
           id="path13"
           transform="matrix(0.93701717,0,0,0.93701717,7.6685457,3.4815147)" />
        <path
           style="fill:none;stroke:#fefefe;stroke-width:1.4941;stroke-dasharray:none;stroke-opacity:1"
           d="m 128.27036,20.930242 -2.65307,3.488104"
           id="path14"
           transform="matrix(0.93701717,0,0,0.93701717,7.6685457,3.4815147)" />
        <path
           style="fill:none;stroke:#fefefe;stroke-width:1.4941;stroke-dasharray:none;stroke-opacity:1"
           d="m 126.3,14.993015 -4.13524,-1.422763"
           id="path15"
           transform="matrix(0.93701717,0,0,0.93701717,7.6685457,3.4815147)" />
      </g>
    </g>
  </g>
</svg>
